<?xml version="1.0" encoding="UTF-8" standalone="no"?>
<!-- Created with Inkscape (http://www.inkscape.org/) -->

<svg
   width="106.3418mm"
   height="10.375mm"
   viewBox="0 0 106.3418 10.375"
   version="1.1"
   id="svg1409"
   sodipodi:docname="multitester-logo.svg"
   inkscape:version="1.1.2 (0a00cf5339, 2022-02-04)"
   xmlns:inkscape="http://www.inkscape.org/namespaces/inkscape"
   xmlns:sodipodi="http://sodipodi.sourceforge.net/DTD/sodipodi-0.dtd"
   xmlns="http://www.w3.org/2000/svg"
   xmlns:svg="http://www.w3.org/2000/svg">
  <sodipodi:namedview
     id="namedview1534"
     pagecolor="#ffffff"
     bordercolor="#666666"
     borderopacity="1.0"
     inkscape:pageshadow="2"
     inkscape:pageopacity="0.0"
     inkscape:pagecheckerboard="0"
     inkscape:document-units="mm"
     showgrid="false"
     fit-margin-top="0"
     fit-margin-left="0"
     fit-margin-right="0"
     fit-margin-bottom="0"
     inkscape:zoom="0.46769781"
     inkscape:cx="200.98448"
     inkscape:cy="20.312261"
     inkscape:window-width="1280"
     inkscape:window-height="748"
     inkscape:window-x="0"
     inkscape:window-y="24"
     inkscape:window-maximized="1"
     inkscape:current-layer="svg1409" />
  <defs
     id="defs1406" />
  <g
     id="layer1"
     transform="translate(-47.526245,-143.3125)">
    <g
       id="text2036-2-7"
       transform="translate(26.973511,34.79687)">
      <path
         style="color:#000000;fill:#000000;-inkscape-stroke:none;paint-order:stroke fill markers"
         d="m 20.552734,108.51563 v 1.5 8.875 h 5.210938 v -2.0879 l 1.732422,2.0879 h 2.6875 4.023437 5.269531 1.71875 5.242188 3.509766 2.380859 l 0.65625,-1.24805 h 2.410156 l 0.654297,1.24805 h 4.275391 1.669922 3.583984 v -4.15821 l 1.484375,-1.55664 h 3.050781 v 5.71485 h 5.265625 v -5.71485 h 1.021485 v 5.71485 h 9.175781 1.835937 5.972657 c 0.899605,0 1.748322,0.001 2.574218,-0.6504 0.825896,-0.65147 1.009766,-1.68945 1.009766,-2.5625 v -1.21875 c 0,-0.40464 -0.05675,-0.85424 -0.199219,-1.2832 h 0.892578 v 5.71485 h 5.265621 v -5.71485 h 1.02149 v 5.71485 h 9.29297 1.71875 3.49219 v -2.08594 l 1.73242,2.08594 h 6.70898 l -3.13867,-3.55274 c 0.49346,-0.5795 0.76172,-1.33654 0.76172,-2.07422 v -1.66015 c 0,-0.80713 -0.21292,-1.82738 -1.00977,-2.44532 -0.79684,-0.61793 -1.62878,-0.64257 -2.52343,-0.64257 h -6.09766 -1.64453 -7.18164 -2.11133 -7.339845 -2.080078 -5.388672 c -0.62759,0 -1.223513,0.0962 -1.802734,0.32031 v -0.32031 h -8.826172 -2.111328 -4.892579 -4.52539 -2.576172 l -1.408203,1.55859 -1.40625,-1.55859 h -5.316406 -1.791016 -2.330078 l -0.427735,0.77539 -2.679687,4.86523 h -4.316406 v -5.64062 h -3.609375 -1.644532 -9.292968 v 0.35546 c -0.604353,-0.25791 -1.224608,-0.35546 -1.886719,-0.35546 z m 38.240235,4.56835 1.53125,1.62305 v 1.1543 z m -19.609375,0.0391 h 0.292968 v 1.10742 h -0.292968 z m 46.216797,0 h 0.234375 c 0.02779,0.36865 0.106683,0.723 0.255859,1.08593 h -0.314453 v 0.0215 h -0.175781 z m 27.548829,0 h 0.29297 v 1.10742 h -0.29297 z"
         id="path926" />
      <path
         style="color:#000000;fill:#ffff00;stroke-width:3;-inkscape-stroke:none;paint-order:stroke fill markers"
         d="m 22.052822,110.01508 v 7.3763 h 2.211752 v -2.55023 h 1.820044 l 2.116667,2.55023 h 2.677872 l -2.254126,-2.55023 c 1.090081,-0.0423 1.703771,-0.29659 1.703771,-1.57717 v -1.6614 c 0,-1.23824 -0.465587,-1.5875 -2.031918,-1.5875 z m 9.630419,0 v 7.3763 h 8.011914 v -1.6614 h -5.789311 v -1.36529 h 3.778065 v -1.53479 h -3.778065 v -1.20613 h 5.714897 v -1.60869 z m 9.292458,0 v 7.3763 h 7.471894 v -1.7353 h -5.217769 v -5.641 z m 12.064896,0 -4.063835,7.3763 h 2.444294 l 0.656291,-1.2485 h 4.222999 l 0.655773,1.2485 h 2.498039 l -4.064352,-7.3763 z m 4.921147,0 3.862814,4.09536 v 3.28094 h 2.254125 v -3.25975 l 3.926375,-4.11655 h -2.931605 l -1.280541,1.418 c -0.275167,0.29634 -0.5715,0.65601 -0.79375,0.88884 -0.211667,-0.254 -0.518337,-0.59225 -0.804085,-0.89917 l -1.270209,-1.40767 z m 10.51977,0 v 1.6614 h 3.132627 v 5.7149 h 2.264976 v -5.7149 h 3.132627 v -1.6614 z m 9.419063,0 v 7.3763 h 8.011398 v -1.6614 h -5.788795 v -1.36529 h 3.778065 v -1.53479 h -3.778065 v -1.20613 h 5.714897 v -1.60869 z m 11.239624,0 c -1.576911,0 -2.063956,0.35993 -2.063956,1.67225 v 1.00511 c 0,1.3335 0.434128,1.69344 2.063956,1.69344 h 3.851961 c 0.169333,0 0.22221,0.0422 0.22221,0.17983 v 0.9524 c 0,0.14817 -0.05288,0.19068 -0.22221,0.19068 h -5.915917 v 1.68259 h 6.307624 c 1.608662,0 2.085145,-0.30653 2.085145,-1.71411 v -1.21749 c 0,-1.31234 -0.476483,-1.64021 -2.085145,-1.64021 h -3.873148 c -0.169333,0 -0.222726,-0.0425 -0.222726,-0.19069 v -0.81494 c 0,-0.15875 0.05339,-0.20102 0.222726,-0.20102 h 5.598107 v -1.59784 z m 6.889502,0 v 1.6614 h 3.132627 v 5.7149 h 2.264972 v -5.7149 h 3.13263 v -1.6614 z m 9.419059,0 v 7.3763 h 8.01192 v -1.6614 h -5.78931 v -1.36529 h 3.77806 v -1.53479 h -3.77806 v -1.20613 h 5.71489 v -1.60869 z m 9.29246,0 v 7.3763 h 2.21175 v -2.55023 h 1.82005 l 2.11666,2.55023 h 2.67787 l -2.25412,-2.55023 c 1.09008,-0.0423 1.70377,-0.29659 1.70377,-1.57717 v -1.6614 c 0,-1.23824 -0.46559,-1.5875 -2.03192,-1.5875 z m -90.476646,1.59784 h 3.66179 c 0.15875,0 0.211876,0.0317 0.211876,0.20102 v 1.2175 c 0,0.15875 -0.05313,0.19017 -0.211876,0.19017 h -3.66179 z m 92.688396,0 h 3.66179 c 0.15875,0 0.21188,0.0317 0.21188,0.20102 v 1.2175 c 0,0.15875 -0.0531,0.19017 -0.21188,0.19017 h -3.66179 z m -62.780146,0.49764 h 0.02119 l 1.376143,2.5399 h -2.76262 z"
         id="path928" />
    </g>
  </g>
</svg>
